<?xml version="1.0" encoding="UTF-8" standalone="no"?>
<!-- Created with Inkscape (http://www.inkscape.org/) -->

<svg
   width="134.11421mm"
   height="129.85345mm"
   viewBox="0 0 134.11421 131.16511"
   version="1.1"
   id="svg1"
   xml:space="preserve"
   xmlns="http://www.w3.org/2000/svg"
   xmlns:svg="http://www.w3.org/2000/svg"><defs
     id="defs1" /><g
     id="layer1"
     transform="translate(-41.506482,-43.563762)"><path
       style="fill:#d24218"
       d="m 41.589827,174.53954 c -0.317909,-0.12854 -0.704862,-0.47073 -0.859896,-0.76041 -0.361199,-0.67491 -0.386206,-14.68884 -0.02741,-15.35926 0.13996,-0.26151 0.603983,-0.62025 1.031163,-0.7972 0.639021,-0.26469 0.916517,-0.24941 1.565549,0.0862 0.433872,0.22436 0.862817,0.60067 0.953212,0.83624 0.0904,0.23556 0.164354,3.09746 0.164354,6.35978 v 5.93149 h 11.509375 11.509375 v -8.59756 -8.59755 l -3.571875,-4.77497 c -3.838428,-5.13131 -4.105414,-5.74686 -2.95951,-6.82339 0.739303,-0.69453 1.78325,-0.74124 2.509401,-0.11226 0.294006,0.25466 2.576282,3.1722 5.071725,6.48342 2.78468,3.69502 4.839868,6.17694 5.320854,6.42566 0.669677,0.34631 2.1679,0.39426 10.298618,0.3296 l 9.514931,-0.0757 0.816749,-0.81704 c 1.483084,-1.4836 1.486719,-3.75766 0.0084,-5.23698 l -0.824605,-0.82515 -7.9991,-0.13229 c -4.399505,-0.0728 -8.149384,-0.22951 -8.333064,-0.34834 -0.18368,-0.11883 -2.851397,-3.55493 -5.928261,-7.63577 -5.121474,-6.7926 -6.580897,-8.41616 -7.567927,-8.41907 -0.185021,-5.4e-4 -0.780485,0.29289 -1.323253,0.65208 -3.489526,2.30926 -8.586622,2.46736 -12.489067,0.38738 -1.129426,-0.60198 -1.76452,-0.79043 -2.25174,-0.66814 -0.994106,0.2495 -2.704574,2.0847 -3.027757,3.24853 -0.166008,0.59783 -0.280889,3.98842 -0.281763,8.31588 -0.0014,6.98998 -0.02523,7.3367 -0.549846,8.00364 -0.397725,0.50563 -0.792216,0.69714 -1.436005,0.69714 -0.643789,0 -1.038279,-0.19151 -1.436005,-0.69714 -0.52492,-0.66732 -0.54837,-1.01186 -0.54837,-8.05676 0,-4.2467 0.120222,-7.92021 0.28423,-8.68495 0.374181,-1.74475 2.00998,-4.23617 3.469577,-5.28437 l 1.169171,-0.83963 -0.873392,-1.77847 c -0.529268,-1.07774 -0.975809,-2.5082 -1.133331,-3.63055 -0.35049,-2.49726 -0.34037,-12.61436 0.01457,-14.56964 0.49684,-2.73693 2.14785,-4.84577 4.728646,-6.0399 1.122705,-0.51948 1.65104,-0.55713 7.818651,-0.55713 6.335221,0 6.665212,0.0252 7.813332,0.59718 1.806653,0.90001 2.967179,1.97128 3.83723,3.54208 l 0.784854,1.41699 0.08742,7.54063 c 0.09399,8.10742 -0.04328,9.45197 -1.198628,11.74094 l -0.651075,1.28991 1.22615,1.09134 c 0.674382,0.60024 3.518257,4.12744 6.319722,7.83822 l 5.093573,6.74688 3.999959,0.0729 3.999958,0.0729 0.08646,-5.10001 c 0.08424,-4.96917 0.104477,-5.13055 0.78869,-6.29063 1.250525,-2.12026 3.336038,-3.91696 6.309229,-5.43549 0.800365,-0.40878 1.48706,-0.76401 1.52599,-0.78941 0.03893,-0.0254 -0.116519,-0.77728 -0.34544,-1.67085 -0.342571,-1.33718 -0.401913,-2.99448 -0.335364,-9.36602 l 0.08086,-7.74136 0.784854,-1.41699 c 0.870052,-1.5708 2.030577,-2.64207 3.837231,-3.54208 1.161434,-0.57859 1.475654,-0.59973 10.095304,-0.67913 l 8.89655,-0.082 0.76074,0.65407 0.76074,0.65408 0.0775,8.6883 c 0.0691,7.74567 -0.086,11.1169 -0.62478,13.58309 -0.13108,0.60002 0.0228,0.74148 1.65661,1.52297 3.5257,1.68644 6.22662,4.22418 7.08493,6.65688 0.30378,0.86101 0.40472,2.2953 0.40472,5.75093 v 4.60383 l 4.01487,-0.073 4.01488,-0.073 5.10397,-6.74688 c 4.82936,-6.38387 6.40432,-8.23246 7.25567,-8.51625 0.2869,-0.0956 0.16436,-0.55948 -0.5514,-2.08721 l -0.92027,-1.96424 v -8.46667 -8.46667 l 0.78485,-1.41699 c 0.87005,-1.5708 2.03058,-2.64207 3.83723,-3.54208 1.14812,-0.57195 1.47811,-0.59718 7.81333,-0.59718 6.19839,0 6.69154,0.0356 7.8376,0.56551 1.75544,0.81168 3.27995,2.29752 4.12692,4.02222 0.73183,1.49026 0.73593,1.52891 0.82615,7.79206 0.1096,7.60857 -0.14756,9.95768 -1.35936,12.41743 l -0.87616,1.77847 1.16917,0.83963 c 1.4596,1.0482 3.0954,3.53962 3.46958,5.28437 0.164,0.76474 0.28423,4.43825 0.28423,8.68495 0,7.0449 -0.0234,7.38944 -0.54837,8.05676 -0.75837,0.96411 -2.11364,0.96411 -2.87201,0 -0.52458,-0.66689 -0.54837,-1.01284 -0.54837,-7.97295 0,-8.1847 -0.11339,-8.9058 -1.64057,-10.43297 -1.41998,-1.41999 -2.03864,-1.4979 -3.92217,-0.49399 -3.90244,2.07998 -8.99954,1.92188 -12.48906,-0.38738 -0.54277,-0.35919 -1.13824,-0.65262 -1.32326,-0.65208 -0.98766,0.003 -2.44784,1.62831 -7.59216,8.45122 -3.52888,4.68035 -5.86315,7.54486 -6.27622,7.70191 -0.36172,0.13753 -3.95391,0.2505 -7.98265,0.25104 -6.79378,9.2e-4 -7.38627,0.0384 -8.17048,0.51653 -1.38534,0.8447 -1.77983,1.72462 -1.69731,3.78584 0.0174,0.43457 0.39683,1.13266 0.93474,1.7198 l 0.90545,0.9883 9.54032,0.0757 c 8.14603,0.0646 9.65466,0.0165 10.32258,-0.32885 0.47853,-0.24746 2.54599,-2.74226 5.325,-6.42566 2.49852,-3.31163 4.78144,-6.22951 5.07317,-6.48417 0.74102,-0.64687 1.85585,-0.58138 2.54233,0.14934 1.05999,1.12831 0.80666,1.70204 -2.99659,6.78631 l -3.57187,4.77497 v 8.59755 8.59756 h 11.50937 11.50938 v -5.97052 c 0,-3.31621 0.11313,-6.18191 0.25447,-6.44601 0.13996,-0.26151 0.60398,-0.62025 1.03116,-0.7972 0.63902,-0.26469 0.91652,-0.24941 1.56555,0.0862 0.43387,0.22436 0.86282,0.60067 0.95321,0.83624 0.0904,0.23556 0.16436,3.67959 0.16436,7.65339 0,6.71952 -0.0354,7.26879 -0.50579,7.84971 l -0.50578,0.62462 -66.36766,0.0502 c -37.919843,0.0287 -66.615411,-0.05 -66.945666,-0.18351 z m 103.368643,-9.52398 v -5.82083 H 108.18138 71.404301 v 5.82083 5.82084 h 36.777079 36.77709 z m -27.66246,-10.70712 c -0.56868,-1.36104 -0.48425,-4.25739 0.16608,-5.69704 1.13416,-2.51076 3.45684,-4.19095 6.12839,-4.4332 l 1.55679,-0.14117 -0.0824,-4.71485 -0.0824,-4.71486 -1.32292,-1.34746 c -0.85831,-0.87423 -2.13815,-1.75665 -3.6442,-2.51259 l -2.32128,-1.16513 -1.25059,1.19841 c -1.62334,1.5556 -4.45672,2.92713 -6.78929,3.28644 -3.58892,0.55283 -7.42917,-0.60581 -10.167225,-3.06755 l -1.34403,-1.2084 -2.068801,1.07631 c -1.184945,0.61647 -2.629529,1.6453 -3.381275,2.40814 l -1.312475,1.33183 -0.08242,4.71486 -0.08242,4.71485 1.556784,0.14117 c 2.671555,0.24225 4.99423,1.92244 6.128397,4.4332 0.650324,1.43965 0.734758,4.336 0.166079,5.69704 l -0.383374,0.91754 h 9.498 9.498 z M 57.987138,129.96167 c 2.819539,-0.7344 5.009575,-2.68505 6.006713,-5.35014 0.42647,-1.13984 0.531283,-2.06348 0.531283,-4.6818 v -3.26181 l -1.785937,-0.15083 c -0.982266,-0.083 -2.038714,-0.22794 -2.347663,-0.32221 -0.476706,-0.14544 -0.587196,-0.0379 -0.730011,0.71059 -0.539821,2.82915 -2.883021,5.78968 -5.525435,6.98114 -1.386499,0.62517 -2.018558,0.74665 -3.964241,0.76188 -1.495801,0.0117 -2.314874,0.12108 -2.315105,0.30915 -5.58e-4,0.45385 1.393982,2.26505 2.471353,3.20975 2.279839,1.99909 4.697883,2.56556 7.659043,1.79428 z m 53.551832,-0.54643 c 1.71799,-0.83947 3.84659,-3.13426 4.45738,-4.80539 0.33233,-0.90923 0.49754,-2.36629 0.58608,-5.16876 l 0.1233,-3.90261 h -8.78286 -8.78285 l 0.09195,4.29948 c 0.101269,4.73522 0.292447,5.40926 2.12682,7.49849 2.51366,2.8629 6.78887,3.7359 10.18018,2.07879 z m 51.09519,0.58016 c 0.76276,-0.19785 1.95432,-0.74699 2.64791,-1.22029 1.21864,-0.83159 3.22469,-3.20307 3.22396,-3.81125 -2.4e-4,-0.19589 -0.78972,-0.30343 -2.31511,-0.31537 -1.94568,-0.0152 -2.57774,-0.13671 -3.96424,-0.76188 -2.64241,-1.19146 -4.98561,-4.15199 -5.52543,-6.98114 -0.14282,-0.74848 -0.25331,-0.85603 -0.73002,-0.71059 -0.30894,0.0943 -1.3762,0.24003 -2.37167,0.32393 l -1.80996,0.15254 0.0962,3.73305 c 0.0835,3.23997 0.17421,3.88059 0.6871,4.85016 1.28412,2.42753 3.22651,4.0306 5.68652,4.69316 1.78257,0.48009 2.67049,0.48977 4.37478,0.0477 z M 51.957427,120.53645 c 2.297611,-0.63121 3.884349,-3.20003 4.280778,-6.93031 0.299041,-2.81387 1.707405,-3.57473 3.804702,-2.05546 0.938421,0.67979 2.96072,1.34197 4.098375,1.34197 0.300193,0 0.383852,-0.41897 0.383852,-1.92236 0,-2.42178 -0.537364,-3.51694 -2.144536,-4.3706 -1.130793,-0.60063 -1.319708,-0.61536 -6.872613,-0.53576 l -5.709858,0.0818 -0.947249,0.72306 c -1.611667,1.23021 -1.815321,2.20369 -1.730182,8.27037 l 0.07423,5.28925 0.79375,0.16954 c 1.283363,0.27413 2.834447,0.25008 3.968751,-0.0615 z m 117.078533,-0.10343 c 0.16205,-0.10015 0.26193,-2.22851 0.25836,-5.50547 -0.007,-6.02521 -0.22334,-6.9638 -1.88158,-8.14649 -0.86389,-0.61614 -1.06213,-0.63775 -6.57927,-0.71713 -5.53062,-0.0796 -5.72082,-0.0647 -6.8513,0.53576 -1.60717,0.85366 -2.14454,1.94882 -2.14454,4.3706 0,1.50339 0.0837,1.92236 0.38386,1.92236 1.13765,0 3.15995,-0.66218 4.09837,-1.34197 2.0973,-1.51927 3.50566,-0.75841 3.8047,2.05546 0.38098,3.58489 1.82211,6.04176 4.0162,6.84688 1.02966,0.37784 4.27292,0.36459 4.8952,-0.02 z m -52.4448,-11.57527 -0.0754,-2.71198 -7.02799,-0.0704 c -6.88311,-0.0689 -7.05163,-0.0579 -8.17422,0.53576 -1.412001,0.74669 -2.128,1.99083 -2.128,3.69767 v 1.2609 h 8.74051 8.7405 z m 20.57647,-6.54843 -4.8069,-4.762501 H 126.775 c -3.07217,0 -5.77849,-0.074 -6.01405,-0.16436 -0.23557,-0.0904 -0.61187,-0.51934 -0.83624,-0.95321 -0.33563,-0.64903 -0.35091,-0.92653 -0.0862,-1.56555 0.17695,-0.42718 0.53569,-0.8912 0.7972,-1.03116 0.26649,-0.14262 3.2653,-0.25447 6.82258,-0.25447 7.35946,0 6.02421,-0.50385 10.62103,4.00781 l 2.77813,2.726671 0.075,-2.825821 c 0.0713,-2.68669 0.10886,-2.85247 0.76329,-3.36724 0.37857,-0.29778 1.0592,-0.54404 1.51252,-0.54723 1.96446,-0.0139 4.34326,-1.89261 4.9284,-3.89241 0.19771,-0.67567 0.26545,-4.49604 0.21038,-11.8642 l -0.0812,-10.86762 -0.72168,-1.09015 c -0.39692,-0.59958 -1.28989,-1.42415 -1.98437,-1.83237 l -1.2627,-0.74223 -17.5064,-0.0768 -17.5064,-0.0768 -0.10623,8.54342 c -0.0976,7.84708 -0.15107,8.66433 -0.65636,10.02672 -1.82936,4.93243 -6.34346,8.174 -11.382831,8.174 h -1.406414 l 0.380048,0.7276 c 0.538047,1.0301 1.717383,2.08577 2.866189,2.56566 0.799928,0.33414 2.214268,0.41091 7.571088,0.41091 6.26367,0 6.62166,0.0269 7.28454,0.54837 0.97516,0.76706 0.96424,2.11354 -0.0234,2.89045 -0.7027,0.55274 -0.89807,0.56471 -7.87135,0.48222 l -7.150773,-0.0846 -1.646336,-0.76045 c -1.05161,-0.48575 -2.128597,-1.27038 -2.981342,-2.17203 -1.235584,-1.30645 -2.38378,-3.34545 -2.38378,-4.2332 0,-0.31879 -2.090418,-0.37494 -13.959526,-0.37494 h -13.95959 l -4.756987,4.7625 c -4.177976,4.18282 -4.859649,4.7625 -5.600435,4.7625 -0.596055,0 -1.004293,-0.20448 -1.391819,-0.69714 -0.501555,-0.63762 -0.548402,-1.04986 -0.548737,-4.82865 l -3.67e-4,-4.1315 -1.542215,-0.45316 c -2.069055,-0.60797 -4.613934,-2.35274 -5.85064,-4.01122 -2.594333,-3.47912 -2.651947,-3.87978 -2.656668,-18.4752 -0.0026,-7.88983 0.09857,-12.57889 0.290991,-13.49375 0.495345,-2.35508 1.521343,-4.1851 3.389172,-6.04508 1.929507,-1.921397 3.836126,-2.960432 6.251799,-3.406994 2.059596,-0.380737 45.770981,-0.393846 47.772179,-0.01433 2.126424,0.403268 4.562564,1.654872 6.157994,3.163764 2.58794,2.44757 3.85331,5.80577 3.86269,10.25134 l 0.005,2.17579 18.1901,0.0732 18.19012,0.0732 1.6585,0.89934 c 1.98428,1.07601 3.31495,2.4798 4.25886,4.49286 l 0.69722,1.48696 v 12.03855 c 0,11.90054 -0.007,12.05307 -0.59053,13.30609 -0.91381,1.96145 -2.99559,3.98957 -4.98453,4.85605 l -1.70098,0.74102 v 3.738101 c 0,4.95917 -0.37256,5.93374 -2.26833,5.93374 -0.57324,0 -1.67204,-0.94759 -5.52251,-4.7625 z M 62.324928,86.198469 c 0.40604,-0.20608 5.880611,-0.29332 18.407554,-0.29332 15.67798,0 17.98014,-0.0513 19.076786,-0.42495 1.697332,-0.57834 3.907852,-2.64734 4.699222,-4.39837 l 0.63019,-1.39439 v -12.96458 c 0,-12.68439 -0.0122,-12.99102 -0.56551,-14.18759 -0.81169,-1.75545 -2.29752,-3.27996 -4.02223,-4.12693 l -1.497682,-0.73548 H 75.505342 c -22.576128,0 -23.602203,0.0209 -24.86338,0.50732 -1.728221,0.6665 -3.633861,2.48049 -4.410766,4.19862 l -0.62377,1.37948 v 13.09687 13.09688 l 0.622685,1.25301 c 1.300328,2.61662 3.767448,4.34012 6.709252,4.68698 2.336397,0.27549 2.589938,0.67423 2.589938,4.0732 v 2.67853 l 3.108854,-3.07598 c 1.70987,-1.69179 3.368918,-3.20798 3.686773,-3.3693 z m -5.977873,-7.19141 c -1.376142,-0.56082 -1.713849,-1.82449 -0.79855,-2.9881 l 0.54837,-0.69714 h 10.034963 c 9.682185,0 10.053565,0.0186 10.564129,0.52916 0.712996,0.713 0.69896,2.14549 -0.02747,2.80327 -0.523297,0.47384 -1.129387,0.50728 -10.120312,0.55831 -5.782652,0.0328 -9.815698,-0.0484 -10.201133,-0.2055 z m -0.697488,-10.94926 c -0.778998,-0.77899 -0.831387,-1.71304 -0.143721,-2.5624 l 0.50571,-0.62462 18.610434,-0.0772 c 10.235739,-0.0425 18.997091,-0.007 19.469672,0.078 0.593713,0.10726 0.982084,0.39278 1.25677,0.92397 0.55017,1.06391 0.500516,1.50985 -0.251898,2.26226 l -0.649432,0.64943 H 75.37305 56.298998 Z m 0.541193,-9.97484 c -1.289979,-0.70556 -1.533984,-1.83244 -0.642255,-2.96608 l 0.54837,-0.69714 H 75.37305 94.649226 l 0.54837,0.69714 c 0.301603,0.38342 0.54837,0.85407 0.54837,1.04588 0,0.69961 -0.603216,1.64536 -1.23225,1.93197 -0.900702,0.41038 -37.571721,0.39913 -38.322956,-0.0118 z"
       id="path1" /></g></svg>
